<?xml version="1.0" encoding="UTF-8" standalone="no"?>
<svg
   xmlns:dc="http://purl.org/dc/elements/1.1/"
   xmlns:cc="http://creativecommons.org/ns#"
   xmlns:rdf="http://www.w3.org/1999/02/22-rdf-syntax-ns#"
   xmlns:svg="http://www.w3.org/2000/svg"
   xmlns="http://www.w3.org/2000/svg"
   xmlns:sodipodi="http://sodipodi.sourceforge.net/DTD/sodipodi-0.dtd"
   xmlns:inkscape="http://www.inkscape.org/namespaces/inkscape"
   enable-background="new 0 0 128 128"
   version="1.1"
   viewBox="0 0 128 128"
   xml:space="preserve"
   id="svg80"
   sodipodi:docname="ubi.svg"
   inkscape:version="0.92.3 (2405546, 2018-03-11)"><metadata
   id="metadata86"><rdf:RDF><cc:Work
       rdf:about=""><dc:format>image/svg+xml</dc:format><dc:type
         rdf:resource="http://purl.org/dc/dcmitype/StillImage" /></cc:Work></rdf:RDF></metadata><defs
   id="defs84" /><sodipodi:namedview
   pagecolor="#ffffff"
   bordercolor="#666666"
   borderopacity="1"
   objecttolerance="10"
   gridtolerance="10"
   guidetolerance="10"
   inkscape:pageopacity="0"
   inkscape:pageshadow="2"
   inkscape:window-width="1280"
   inkscape:window-height="758"
   id="namedview82"
   showgrid="false"
   inkscape:snap-global="true"
   inkscape:zoom="4.203125"
   inkscape:cx="64"
   inkscape:cy="64"
   inkscape:window-x="0"
   inkscape:window-y="20"
   inkscape:window-maximized="1"
   inkscape:current-layer="svg80" />
	<path
   d="m64 5.64c-19.33 0-35 15.67-35 35 0 44.36 35 82.36 35 82.36s35-38 35-82.36c0-19.33-15.67-35-35-35zm0 53.03c-10.12 0-18.33-8.21-18.33-18.34 0-10.12 8.21-18.33 18.33-18.33s18.33 8.21 18.33 18.33c0 10.13-8.21 18.34-18.33 18.34z"
   fill="#E51F1F"
   id="path76"
   style="fill:#4a4a59;fill-opacity:1" />
	<path
   d="m64 126c-0.839 0-1.639-0.351-2.207-0.968-1.461-1.586-35.793-39.379-35.793-84.392 0-20.953 17.047-38 38-38s38 17.047 38 38c0 45.013-34.332 82.806-35.793 84.392-0.568 0.617-1.368 0.968-2.207 0.968zm0-117.36c-17.645 0-32 14.355-32 32 0 36.209 24.428 68.587 32 77.751 7.572-9.164 32-41.542 32-77.751 0-17.645-14.355-32-32-32zm0 53.03c-11.762 0-21.33-9.573-21.33-21.34 0-11.761 9.568-21.33 21.33-21.33s21.33 9.569 21.33 21.33c0 11.767-9.568 21.34-21.33 21.34zm0-36.67c-8.453 0-15.33 6.877-15.33 15.33 0 8.458 6.877 15.34 15.33 15.34s15.33-6.881 15.33-15.34c0-8.453-6.877-15.33-15.33-15.33z"
   fill="#231F20"
   id="path78"
   style="fill:#23232b;fill-opacity:1" />
</svg>